<?xml version="1.0" encoding="utf-8"?><svg viewBox="0 0 74 72" xmlns="http://www.w3.org/2000/svg" xmlns:xlink="http://www.w3.org/1999/xlink"><style>:root>svg{display:none}:root>svg:target{display:block}</style><svg fill="none" viewBox="0 0 74 72" id="Vector" xmlns="http://www.w3.org/2000/svg"><g filter="url(#afilter0_d_698_81)"><path d="M51.09 62v-6.667c0-3.536-1.187-6.927-3.3-9.428-2.115-2.5-4.982-3.905-7.972-3.905H17.273c-2.99 0-5.857 1.405-7.971 3.905S6 51.797 6 55.333V62m62 0v-6.667c-.002-2.954-.833-5.824-2.363-8.159-1.53-2.334-3.673-4.002-6.092-4.74m-11.272-40c2.424.734 4.574 2.402 6.108 4.74 1.535 2.34 2.368 5.215 2.368 8.176 0 2.96-.833 5.837-2.367 8.176-1.535 2.338-3.684 4.006-6.11 4.74m-8.454-12.933c0 7.364-5.047 13.334-11.272 13.334-6.226 0-11.273-5.97-11.273-13.334C17.273 7.97 22.32 2 28.546 2c6.225 0 11.272 5.97 11.272 13.333z" stroke="#173151" stroke-width="4" stroke-linecap="round" stroke-linejoin="round" shape-rendering="crispEdges"/></g><defs><filter id="afilter0_d_698_81" x="0" y="0" width="74" height="72" filterUnits="userSpaceOnUse" color-interpolation-filters="sRGB"><feFlood flood-opacity="0" result="BackgroundImageFix"/><feColorMatrix in="SourceAlpha" values="0 0 0 0 0 0 0 0 0 0 0 0 0 0 0 0 0 0 127 0" result="hardAlpha"/><feOffset dy="4"/><feGaussianBlur stdDeviation="2"/><feComposite in2="hardAlpha" operator="out"/><feColorMatrix values="0 0 0 0 0 0 0 0 0 0 0 0 0 0 0 0 0 0 0.25 0"/><feBlend in2="BackgroundImageFix" result="effect1_dropShadow_698_81"/><feBlend in="SourceGraphic" in2="effect1_dropShadow_698_81" result="shape"/></filter></defs></svg><svg fill="none" viewBox="0 0 71 72" id="Vector-1" xmlns="http://www.w3.org/2000/svg"><g filter="url(#bfilter0_d_699_88)"><path d="M20.988 29l11.99-27a8.99 8.99 0 016.359 2.636A9.004 9.004 0 0141.97 11v12h16.966a5.99 5.99 0 015.825 4.327c.243.835.3 1.713.17 2.573l-4.137 27A6.001 6.001 0 0154.8 62H20.988m0-33v33m0-33h-8.993c-1.59 0-3.115.632-4.24 1.757A6.002 6.002 0 006 35v21c0 1.59.632 3.117 1.756 4.242A5.993 5.993 0 0011.996 62h8.992" stroke="#000" stroke-width="4" stroke-linecap="round" stroke-linejoin="round" shape-rendering="crispEdges"/></g><defs><filter id="bfilter0_d_699_88" x="0" y="0" width="71" height="72" filterUnits="userSpaceOnUse" color-interpolation-filters="sRGB"><feFlood flood-opacity="0" result="BackgroundImageFix"/><feColorMatrix in="SourceAlpha" values="0 0 0 0 0 0 0 0 0 0 0 0 0 0 0 0 0 0 127 0" result="hardAlpha"/><feOffset dy="4"/><feGaussianBlur stdDeviation="2"/><feComposite in2="hardAlpha" operator="out"/><feColorMatrix values="0 0 0 0 0 0 0 0 0 0 0 0 0 0 0 0 0 0 0.25 0"/><feBlend in2="BackgroundImageFix" result="effect1_dropShadow_699_88"/><feBlend in="SourceGraphic" in2="effect1_dropShadow_699_88" result="shape"/></filter></defs></svg><svg fill="none" viewBox="0 0 72 72" id="Vector-2" xmlns="http://www.w3.org/2000/svg"><g filter="url(#cfilter0_d_698_70)"><path d="M24.947 28.667l9.474 10L66 5.333M62.842 32v23.333c0 1.768-.665 3.464-1.85 4.714-1.184 1.25-2.79 1.953-4.466 1.953h-44.21c-1.675 0-3.282-.702-4.466-1.953C6.665 58.797 6 57.101 6 55.333V8.667c0-1.768.665-3.464 1.85-4.714C9.034 2.703 10.64 2 12.316 2h34.737" stroke="#173151" stroke-width="4" stroke-linecap="round" stroke-linejoin="round" shape-rendering="crispEdges"/></g><defs><filter id="cfilter0_d_698_70" x="0" y="0" width="72" height="72" filterUnits="userSpaceOnUse" color-interpolation-filters="sRGB"><feFlood flood-opacity="0" result="BackgroundImageFix"/><feColorMatrix in="SourceAlpha" values="0 0 0 0 0 0 0 0 0 0 0 0 0 0 0 0 0 0 127 0" result="hardAlpha"/><feOffset dy="4"/><feGaussianBlur stdDeviation="2"/><feComposite in2="hardAlpha" operator="out"/><feColorMatrix values="0 0 0 0 0 0 0 0 0 0 0 0 0 0 0 0 0 0 0.25 0"/><feBlend in2="BackgroundImageFix" result="effect1_dropShadow_698_70"/><feBlend in="SourceGraphic" in2="effect1_dropShadow_698_70" result="shape"/></filter></defs></svg><svg fill="none" viewBox="0 0 66 72" id="Vector-3" xmlns="http://www.w3.org/2000/svg"><g filter="url(#dfilter0_d_698_80)"><path d="M18.381 37.154L13.714 62 33 53.818 52.286 62l-4.667-24.873M60 21.091c0 10.543-12.088 19.09-27 19.09S6 31.636 6 21.092 18.088 2 33 2s27 8.547 27 19.09z" stroke="#173151" stroke-width="4" stroke-linecap="round" stroke-linejoin="round" shape-rendering="crispEdges"/></g><defs><filter id="dfilter0_d_698_80" x="0" y="0" width="66" height="72" filterUnits="userSpaceOnUse" color-interpolation-filters="sRGB"><feFlood flood-opacity="0" result="BackgroundImageFix"/><feColorMatrix in="SourceAlpha" values="0 0 0 0 0 0 0 0 0 0 0 0 0 0 0 0 0 0 127 0" result="hardAlpha"/><feOffset dy="4"/><feGaussianBlur stdDeviation="2"/><feComposite in2="hardAlpha" operator="out"/><feColorMatrix values="0 0 0 0 0 0 0 0 0 0 0 0 0 0 0 0 0 0 0.25 0"/><feBlend in2="BackgroundImageFix" result="effect1_dropShadow_698_80"/><feBlend in="SourceGraphic" in2="effect1_dropShadow_698_80" result="shape"/></filter></defs></svg></svg>